# xmcd CD database file
#
# Track frame offsets:
#	150
#	23475
#	45356
#	65044
#	80330
#	100863
#	117963
#	137646
#	160162
#	177912
#	197926
#
# Disc length: 3480 seconds
#
# Revision: 7
# Processed by: cddbd v1.5.2PL0 Copyright (c) Steve Scherf et al.
# Submitted via: CDex 1.70beta3
#
DISCID=8a0d960b
DTITLE=如月千早(CV:今井麻美) 水瀬伊織(CV:釘宮理恵) 秋月律子(CV:若林直美) 菊地真(CV:平田宏美) 萩原雪歩(CV:落合祐里香) 音無小鳥(CV:滝田樹里) - THE iDOLM@STER MASTER LIVE 02 REM@STER-B
DYEAR=2008
DGENRE=Game
TTITLE0=開演のあいさつ
TTITLE1=如月千早(CV:今井麻美) 音無小鳥(CV:滝田樹里) 萩原雪歩(CV:落合祐里香)/私はアイドル(REM@STER-B)
TTITLE2=菊地真(CV:平田宏美)/First Stage(REM@STER-B)
TTITLE3=秋月律子(CV:若林直美)/太陽のジェラシー(REM@STER-B)
TTITLE4=萩原雪歩(CV:落合祐里香)/蒼い鳥(REM@STER-B)
TTITLE5=如月千早(CV:今井麻美)/エージェント夜を往く(REM@STER-B)
TTITLE6=水瀬伊織(CV:釘宮理恵)/My Best Friend(REM@STER-B)
TTITLE7=音無小鳥(CV:滝田樹里)/まっすぐ(REM@STER-B)
TTITLE8=水瀬伊織(CV:釘宮理恵) 菊地真(CV:平田宏美) 秋月律子(CV:若林直美)/THE IDOLM@STER(REM@STER-B)
TTITLE9=如月千早(CV:今井麻美) 水瀬伊織(CV:釘宮理恵) 秋月律子(CV:若林直美) 菊地真(CV:平田宏美) 萩原雪歩(CV:落合祐里香) 音無小鳥(CV:滝田樹里)/It's Show
TTITLE10=ボーナス・トラック・トーク
EXTD=YEAR: 2008
EXTT0=
EXTT1=
EXTT2=
EXTT3=
EXTT4=
EXTT5=
EXTT6=
EXTT7=
EXTT8=
EXTT9=
EXTT10=
PLAYORDER=
